                                                                        S      1
,,,3Hpip,22HAutodesk Inventor 2019,7Hunknown,32,38,7,99,15,,1.,1,4HINCH,G      1
1,0.08,15H20190330.183022,0.000393700787401575,10000.,4HQiDa,,11,0,15H20G      2
190330.182549;                                                          G      3
     186       1                                                00000000D      1
     186             -21       1       0                               0D      2
     514       2                                                00010000D      3
     514                       1       1                               0D      4
     510       3                                                00010000D      5
     510             -21       1       1                               0D      6
     508       4                                                00010000D      7
     508                       1       1                               0D      8
     126       5                                                00010000D      9
     126       0              12       0                               0D     10
     126      17                                                00010000D     11
     126       0              13       0                               0D     12
     128      30                                                00010000D     13
     128       0     -21      89       0                               0D     14
     502     119                                                00010000D     15
     502                       1       1                               0D     16
     504     120                                                00010001D     17
     504                       1       1                               0D     18
     406     121                                                00000000D     19
     406                       1      15                               0D     20
     314     122                                                00000200D     21
     314                       1       0                               0D     22
186,3,1,0,0,1,19;                                                      1P      1
514,1,5,1;                                                             3P      2
510,13,1,1,7;                                                          5P      3
508,4,0,17,1,0,0,0,17,2,1,0,0,17,1,1,0,0,17,2,0,0;                     7P      4
126,8,2,0,1,0,1,-3.14159265358979,-3.14159265358979,                   9P      5
-3.14159265358979,-1.5707963267949,-1.5707963267949,0.,0.,             9P      6
1.5707963267949,1.5707963267949,3.14159265358979,                      9P      7
3.14159265358979,3.14159265358979,1.,0.707106781186548,1.,             9P      8
0.707106781186548,1.,0.707106781186548,1.,0.707106781186547,1.,        9P      9
0.,0.248911308982433,0.078351632656856,0.,0.10931073769526,            9P     10
0.0783516326568561,0.,0.10931073769526,0.217952203944029,0.,           9P     11
0.10931073769526,0.357552775231202,0.,0.248911308982433,               9P     12
0.357552775231202,0.,0.388511880269606,0.357552775231202,0.,           9P     13
0.388511880269606,0.217952203944029,0.,0.388511880269606,              9P     14
0.0783516326568561,0.,0.248911308982433,0.078351632656856,             9P     15
-3.14159265358979,3.14159265358979,0.,0.,0.;                           9P     16
126,8,2,0,1,0,1,-3.14159265358979,-3.14159265358979,                  11P     17
-3.14159265358979,-1.5707963267949,-1.5707963267949,0.,0.,            11P     18
1.5707963267949,1.5707963267949,3.14159265358979,                     11P     19
3.14159265358979,3.14159265358979,1.,0.707106781186548,1.,            11P     20
0.707106781186548,1.,0.707106781186548,1.,0.707106781186548,1.,       11P     21
0.,0.248911308982433,0.078351632656856,0.078351632656856,             11P     22
0.248911308982433,0.078351632656856,0.078351632656856,                11P     23
0.248911308982433,0.,0.078351632656856,0.248911308982433,             11P     24
-0.078351632656856,0.,0.248911308982433,-0.078351632656856,           11P     25
-0.078351632656856,0.248911308982433,-0.078351632656856,              11P     26
-0.078351632656856,0.248911308982433,0.,-0.078351632656856,           11P     27
0.248911308982433,0.078351632656856,0.,0.248911308982433,             11P     28
0.078351632656856,-3.14159265358979,3.14159265358979,0.,0.,0.;        11P     29
128,8,8,2,2,1,1,0,1,1,-3.14159265358979,-3.14159265358979,            13P     30
-3.14159265358979,-1.5707963267949,-1.5707963267949,0.,0.,            13P     31
1.5707963267949,1.5707963267949,3.14159265358979,                     13P     32
3.14159265358979,3.14159265358979,-3.14159265358979,                  13P     33
-3.14159265358979,-3.14159265358979,-1.5707963267949,                 13P     34
-1.5707963267949,0.,0.,1.5707963267949,1.5707963267949,               13P     35
3.14159265358979,3.14159265358979,3.14159265358979,1.,                13P     36
0.707106781186548,1.,0.707106781186548,1.,0.707106781186548,1.,       13P     37
0.707106781186547,1.,0.707106781186548,0.5,0.707106781186548,         13P     38
0.500000000000001,0.707106781186548,0.5,0.707106781186548,0.5,        13P     39
0.707106781186548,1.,0.707106781186548,1.,0.707106781186548,1.,       13P     40
0.707106781186548,1.,0.707106781186547,1.,0.707106781186548,0.5,      13P     41
0.707106781186548,0.500000000000001,0.707106781186548,0.5,            13P     42
0.707106781186548,0.5,0.707106781186548,1.,0.707106781186548,1.,      13P     43
0.707106781186548,1.,0.707106781186548,1.,0.707106781186547,1.,       13P     44
0.707106781186548,0.5,0.707106781186548,0.500000000000001,            13P     45
0.707106781186548,0.5,0.707106781186548,0.5,0.707106781186548,        13P     46
1.,0.707106781186548,1.,0.707106781186548,1.,0.707106781186548,       13P     47
1.,0.707106781186547,1.,0.707106781186548,0.5,0.707106781186548,      13P     48
0.500000000000001,0.707106781186548,0.5,0.707106781186548,0.5,        13P     49
0.707106781186548,1.,0.707106781186548,1.,0.707106781186548,1.,       13P     50
0.707106781186548,1.,0.707106781186547,1.,0.,0.248911308982433,       13P     51
0.078351632656856,0.,0.10931073769526,0.0783516326568561,0.,          13P     52
0.10931073769526,0.217952203944029,0.,0.10931073769526,               13P     53
0.357552775231202,0.,0.248911308982433,0.357552775231202,0.,          13P     54
0.388511880269606,0.357552775231202,0.,0.388511880269606,             13P     55
0.217952203944029,0.,0.388511880269606,0.0783516326568561,0.,         13P     56
0.248911308982433,0.078351632656856,-0.078351632656856,               13P     57
0.248911308982433,0.078351632656856,-0.078351632656856,               13P     58
0.10931073769526,0.078351632656856,-0.217952203944029,                13P     59
0.10931073769526,0.217952203944029,-0.357552775231202,                13P     60
0.10931073769526,0.357552775231202,-0.357552775231202,                13P     61
0.248911308982433,0.357552775231202,-0.357552775231202,               13P     62
0.388511880269606,0.357552775231202,-0.217952203944029,               13P     63
0.388511880269606,0.217952203944029,-0.078351632656856,               13P     64
0.388511880269606,0.078351632656856,-0.078351632656856,               13P     65
0.248911308982433,0.078351632656856,-0.078351632656856,               13P     66
0.248911308982433,0.,-0.0783516326568561,0.10931073769526,0.,         13P     67
-0.217952203944029,0.10931073769526,0.,-0.357552775231202,            13P     68
0.10931073769526,0.,-0.357552775231202,0.248911308982433,0.,          13P     69
-0.357552775231202,0.388511880269606,0.,-0.217952203944029,           13P     70
0.388511880269606,0.,-0.0783516326568561,0.388511880269606,0.,        13P     71
-0.078351632656856,0.248911308982433,0.,-0.078351632656856,           13P     72
0.248911308982433,-0.078351632656856,-0.078351632656856,              13P     73
0.10931073769526,-0.078351632656856,-0.217952203944029,               13P     74
0.10931073769526,-0.217952203944029,-0.357552775231202,               13P     75
0.10931073769526,-0.357552775231202,-0.357552775231202,               13P     76
0.248911308982433,-0.357552775231202,-0.357552775231202,              13P     77
0.388511880269606,-0.357552775231202,-0.217952203944029,              13P     78
0.388511880269606,-0.217952203944029,-0.078351632656856,              13P     79
0.388511880269606,-0.078351632656856,-0.078351632656856,              13P     80
0.248911308982433,-0.078351632656856,0.,0.248911308982433,            13P     81
-0.078351632656856,0.,0.10931073769526,-0.0783516326568561,0.,        13P     82
0.10931073769526,-0.217952203944029,0.,0.10931073769526,              13P     83
-0.357552775231202,0.,0.248911308982433,-0.357552775231202,0.,        13P     84
0.388511880269606,-0.357552775231202,0.,0.388511880269606,            13P     85
-0.217952203944029,0.,0.388511880269606,-0.0783516326568561,0.,       13P     86
0.248911308982433,-0.078351632656856,0.078351632656856,               13P     87
0.248911308982433,-0.078351632656856,0.078351632656856,               13P     88
0.10931073769526,-0.078351632656856,0.217952203944029,                13P     89
0.10931073769526,-0.217952203944029,0.357552775231202,                13P     90
0.10931073769526,-0.357552775231202,0.357552775231202,                13P     91
0.248911308982433,-0.357552775231202,0.357552775231202,               13P     92
0.388511880269606,-0.357552775231202,0.217952203944029,               13P     93
0.388511880269606,-0.217952203944029,0.078351632656856,               13P     94
0.388511880269606,-0.078351632656856,0.078351632656856,               13P     95
0.248911308982433,-0.078351632656856,0.078351632656856,               13P     96
0.248911308982433,0.,0.0783516326568561,0.10931073769526,0.,          13P     97
0.217952203944029,0.10931073769526,0.,0.357552775231202,              13P     98
0.10931073769526,0.,0.357552775231202,0.248911308982433,0.,           13P     99
0.357552775231202,0.388511880269606,0.,0.217952203944029,             13P    100
0.388511880269606,0.,0.0783516326568561,0.388511880269606,0.,         13P    101
0.078351632656856,0.248911308982433,0.,0.078351632656856,             13P    102
0.248911308982433,0.078351632656856,0.078351632656856,                13P    103
0.10931073769526,0.078351632656856,0.217952203944029,                 13P    104
0.10931073769526,0.217952203944029,0.357552775231202,                 13P    105
0.10931073769526,0.357552775231202,0.357552775231202,                 13P    106
0.248911308982433,0.357552775231202,0.357552775231202,                13P    107
0.388511880269606,0.357552775231202,0.217952203944029,                13P    108
0.388511880269606,0.217952203944029,0.078351632656856,                13P    109
0.388511880269606,0.078351632656856,0.078351632656856,                13P    110
0.248911308982433,0.078351632656856,0.,0.248911308982433,             13P    111
0.078351632656856,0.,0.10931073769526,0.0783516326568561,0.,          13P    112
0.10931073769526,0.217952203944029,0.,0.10931073769526,               13P    113
0.357552775231202,0.,0.248911308982433,0.357552775231202,0.,          13P    114
0.388511880269606,0.357552775231202,0.,0.388511880269606,             13P    115
0.217952203944029,0.,0.388511880269606,0.0783516326568561,0.,         13P    116
0.248911308982433,0.078351632656856,-3.14159265358979,                13P    117
3.14159265358979,-3.14159265358979,3.14159265358979;                  13P    118
502,1,0.,0.248911308982433,0.078351632656856;                         15P    119
504,2,9,15,1,15,1,11,15,1,15,1;                                       17P    120
406,1,7H实体1;                                                      19P    121
314,74.9019607843137,74.9019607843137,74.9019607843137,;              21P    122
S      1G      3D     22P    122                                        T      1
