IGES file generated by Pointwise V18.0R2 using ge-6.3                   S      1
1H,,1H;,,27HC:/Users/a/Desktop/123.iges,17HPointwise V18.0R2,6Hge-6.3,  G      1
32,38,9,308,17,,1.0,1,4HINCH,16,0.096000000000000002,15H20190422.204633,G      2
0.0001,16.67867435158,7HUnknown,7HUnknown,11,0,15H20190422.204633,;     G      3
     502       1       0       0       0       0       0       0 0 1 0 1D      1
     502       0       0       8       1                Vertices       0D      2
     406       9       0       0       0       0       0       0 0 1 0 1D      3
     406       0       0       1      15                    Name       0D      4
     314      10       0       0       0       0       0       0 0 0 2 1D      5
     314       0       0       1       0                   Color       0D      6
     126      11       0       0       0       0       0       0 1 1 0 1D      7
     126       0      -5       4       0                 BSp Crv       0D      8
     406      15       0       0       0       0       0       0 0 1 0 1D      9
     406       0       0       1      15                    Name       0D     10
     126      16       0       0       0       0       0       0 1 1 0 1D     11
     126       0      -5       4       0                 BSp Crv       0D     12
     406      20       0       0       0       0       0       0 0 1 0 1D     13
     406       0       0       1      15                    Name       0D     14
     126      21       0       0       0       0       0       0 1 1 0 1D     15
     126       0      -5       4       0                 BSp Crv       0D     16
     406      25       0       0       0       0       0       0 0 1 0 1D     17
     406       0       0       1      15                    Name       0D     18
     126      26       0       0       0       0       0       0 1 1 0 1D     19
     126       0      -5       4       0                 BSp Crv       0D     20
     406      30       0       0       0       0       0       0 0 1 0 1D     21
     406       0       0       1      15                    Name       0D     22
     126      31       0       0       0       0       0       0 1 1 0 1D     23
     126       0      -5       4       0                 BSp Crv       0D     24
     406      35       0       0       0       0       0       0 0 1 0 1D     25
     406       0       0       1      15                    Name       0D     26
     126      36       0       0       0       0       0       0 1 1 0 1D     27
     126       0      -5       4       0                 BSp Crv       0D     28
     406      40       0       0       0       0       0       0 0 1 0 1D     29
     406       0       0       1      15                    Name       0D     30
     126      41       0       0       0       0       0       0 1 1 0 1D     31
     126       0      -5       4       0                 BSp Crv       0D     32
     406      45       0       0       0       0       0       0 0 1 0 1D     33
     406       0       0       1      15                    Name       0D     34
     126      46       0       0       0       0       0       0 1 1 0 1D     35
     126       0      -5       4       0                 BSp Crv       0D     36
     406      50       0       0       0       0       0       0 0 1 0 1D     37
     406       0       0       1      15                    Name       0D     38
     126      51       0       0       0       0       0       0 1 1 0 1D     39
     126       0      -5       4       0                 BSp Crv       0D     40
     406      55       0       0       0       0       0       0 0 1 0 1D     41
     406       0       0       1      15                    Name       0D     42
     126      56       0       0       0       0       0       0 1 1 0 1D     43
     126       0      -5       4       0                 BSp Crv       0D     44
     406      60       0       0       0       0       0       0 0 1 0 1D     45
     406       0       0       1      15                    Name       0D     46
     126      61       0       0       0       0       0       0 1 1 0 1D     47
     126       0      -5       4       0                 BSp Crv       0D     48
     406      65       0       0       0       0       0       0 0 1 0 1D     49
     406       0       0       1      15                    Name       0D     50
     126      66       0       0       0       0       0       0 1 1 0 1D     51
     126       0      -5       4       0                 BSp Crv       0D     52
     504      70       0       0       0       0       0       0 0 1 0 1D     53
     504       0       0       3       1                   Edges       0D     54
     406      73       0       0       0       0       0       0 0 1 0 1D     55
     406       0       0       1      15                    Name       0D     56
     128      74       0       0       0       0       0       0 1 1 0 1D     57
     128       0      -5       6       0                BSp Surf       0D     58
     126      80       0       0       0       0       0       0 0 1 5 1D     59
     126       0       0       2       0                PS Curve       0D     60
     126      82       0       0       0       0       0       0 0 1 5 1D     61
     126       0       0       2       0                PS Curve       0D     62
     126      84       0       0       0       0       0       0 0 1 5 1D     63
     126       0       0       2       0                PS Curve       0D     64
     126      86       0       0       0       0       0       0 0 1 5 1D     65
     126       0       0       2       0                PS Curve       0D     66
     508      88       0       0       0       0       0       0 0 1 0 1D     67
     508       0       0       2       1                 CrvLoop       0D     68
     406      90       0       0       0       0       0       0 0 1 0 1D     69
     406       0       0       1      15                    Name       0D     70
     510      91       0       0       0       0       0       0 0 1 0 1D     71
     510       0      -5       1       1                 CrvFace       0D     72
     406      92       0       0       0       0       0       0 0 1 0 1D     73
     406       0       0       1      15                    Name       0D     74
     128      93       0       0       0       0       0       0 1 1 0 1D     75
     128       0      -5       6       0                BSp Surf       0D     76
     126      99       0       0       0       0       0       0 0 1 5 1D     77
     126       0       0       2       0                PS Curve       0D     78
     126     101       0       0       0       0       0       0 0 1 5 1D     79
     126       0       0       2       0                PS Curve       0D     80
     126     103       0       0       0       0       0       0 0 1 5 1D     81
     126       0       0       2       0                PS Curve       0D     82
     126     105       0       0       0       0       0       0 0 1 5 1D     83
     126       0       0       2       0                PS Curve       0D     84
     508     107       0       0       0       0       0       0 0 1 0 1D     85
     508       0       0       2       1                 CrvLoop       0D     86
     406     109       0       0       0       0       0       0 0 1 0 1D     87
     406       0       0       1      15                    Name       0D     88
     510     110       0       0       0       0       0       0 0 1 0 1D     89
     510       0      -5       1       1                 CrvFace       0D     90
     406     111       0       0       0       0       0       0 0 1 0 1D     91
     406       0       0       1      15                    Name       0D     92
     128     112       0       0       0       0       0       0 1 1 0 1D     93
     128       0      -5       6       0                BSp Surf       0D     94
     406     118       0       0       0       0       0       0 0 1 0 1D     95
     406       0       0       1      15                    Name       0D     96
     126     119       0       0       0       0       0       0 1 1 5 1D     97
     126       0      -5       2       0                PS Curve       0D     98
     406     121       0       0       0       0       0       0 0 1 0 1D     99
     406       0       0       1      15                    Name       0D    100
     126     122       0       0       0       0       0       0 1 1 5 1D    101
     126       0      -5       2       0                PS Curve       0D    102
     406     124       0       0       0       0       0       0 0 1 0 1D    103
     406       0       0       1      15                    Name       0D    104
     126     125       0       0       0       0       0       0 1 1 5 1D    105
     126       0      -5       2       0                PS Curve       0D    106
     126     127       0       0       0       0       0       0 0 1 5 1D    107
     126       0       0       2       0                PS Curve       0D    108
     508     129       0       0       0       0       0       0 0 1 0 1D    109
     508       0       0       2       1                 CrvLoop       0D    110
     406     131       0       0       0       0       0       0 0 1 0 1D    111
     406       0       0       1      15                    Name       0D    112
     510     132       0       0       0       0       0       0 0 1 0 1D    113
     510       0      -5       1       1                 CrvFace       0D    114
     406     133       0       0       0       0       0       0 0 1 0 1D    115
     406       0       0       1      15                    Name       0D    116
     128     134       0       0       0       0       0       0 1 1 0 1D    117
     128       0      -5       6       0                BSp Surf       0D    118
     406     140       0       0       0       0       0       0 0 1 0 1D    119
     406       0       0       1      15                    Name       0D    120
     126     141       0       0       0       0       0       0 1 1 5 1D    121
     126       0      -5       2       0                PS Curve       0D    122
     406     143       0       0       0       0       0       0 0 1 0 1D    123
     406       0       0       1      15                    Name       0D    124
     126     144       0       0       0       0       0       0 1 1 5 1D    125
     126       0      -5       2       0                PS Curve       0D    126
     406     146       0       0       0       0       0       0 0 1 0 1D    127
     406       0       0       1      15                    Name       0D    128
     126     147       0       0       0       0       0       0 1 1 5 1D    129
     126       0      -5       2       0                PS Curve       0D    130
     126     149       0       0       0       0       0       0 0 1 5 1D    131
     126       0       0       2       0                PS Curve       0D    132
     508     151       0       0       0       0       0       0 0 1 0 1D    133
     508       0       0       2       1                 CrvLoop       0D    134
     406     153       0       0       0       0       0       0 0 1 0 1D    135
     406       0       0       1      15                    Name       0D    136
     510     154       0       0       0       0       0       0 0 1 0 1D    137
     510       0      -5       1       1                 CrvFace       0D    138
     406     155       0       0       0       0       0       0 0 1 0 1D    139
     406       0       0       1      15                    Name       0D    140
     128     156       0       0       0       0       0       0 1 1 0 1D    141
     128       0      -5       6       0                BSp Surf       0D    142
     406     162       0       0       0       0       0       0 0 1 0 1D    143
     406       0       0       1      15                    Name       0D    144
     126     163       0       0       0       0       0       0 1 1 5 1D    145
     126       0      -5       2       0                PS Curve       0D    146
     406     165       0       0       0       0       0       0 0 1 0 1D    147
     406       0       0       1      15                    Name       0D    148
     126     166       0       0       0       0       0       0 1 1 5 1D    149
     126       0      -5       2       0                PS Curve       0D    150
     406     168       0       0       0       0       0       0 0 1 0 1D    151
     406       0       0       1      15                    Name       0D    152
     126     169       0       0       0       0       0       0 1 1 5 1D    153
     126       0      -5       2       0                PS Curve       0D    154
     406     171       0       0       0       0       0       0 0 1 0 1D    155
     406       0       0       1      15                    Name       0D    156
     126     172       0       0       0       0       0       0 1 1 5 1D    157
     126       0      -5       2       0                PS Curve       0D    158
     508     174       0       0       0       0       0       0 0 1 0 1D    159
     508       0       0       2       1                 CrvLoop       0D    160
     406     176       0       0       0       0       0       0 0 1 0 1D    161
     406       0       0       1      15                    Name       0D    162
     510     177       0       0       0       0       0       0 0 1 0 1D    163
     510       0      -5       1       1                 CrvFace       0D    164
     406     178       0       0       0       0       0       0 0 1 0 1D    165
     406       0       0       1      15                    Name       0D    166
     128     179       0       0       0       0       0       0 1 1 0 1D    167
     128       0      -5       6       0                BSp Surf       0D    168
     406     185       0       0       0       0       0       0 0 1 0 1D    169
     406       0       0       1      15                    Name       0D    170
     126     186       0       0       0       0       0       0 1 1 5 1D    171
     126       0      -5       2       0                PS Curve       0D    172
     126     188       0       0       0       0       0       0 0 1 5 1D    173
     126       0       0       2       0                PS Curve       0D    174
     406     190       0       0       0       0       0       0 0 1 0 1D    175
     406       0       0       1      15                    Name       0D    176
     126     191       0       0       0       0       0       0 1 1 5 1D    177
     126       0      -5       2       0                PS Curve       0D    178
     126     193       0       0       0       0       0       0 0 1 5 1D    179
     126       0       0       2       0                PS Curve       0D    180
     508     195       0       0       0       0       0       0 0 1 0 1D    181
     508       0       0       2       1                 CrvLoop       0D    182
     406     197       0       0       0       0       0       0 0 1 0 1D    183
     406       0       0       1      15                    Name       0D    184
     510     198       0       0       0       0       0       0 0 1 0 1D    185
     510       0      -5       1       1                 CrvFace       0D    186
     514     199       0       0       0       0       0       0 0 1 0 1D    187
     514       0       0       1       1                   Shell       0D    188
     406     200       0       0       0       0       0       0 0 1 0 1D    189
     406       0       0       1      15                    Name       0D    190
     186     201       0       0       0       0       0       0 0 0 0 1D    191
     186       0      -5       1       0                   Solid       0D    192
502,8,-1.3523249474200005,10.939849624059999,9.9401787656050011,       1P      1
16.67867435158,10.939849624059999,9.9401787656050011,                  1P      2
16.67867435158,-0.86466165413999896,9.9401787656050011,                1P      3
-1.3523249474200005,-0.86466165413999896,9.9401787656050011,           1P      4
16.67867435158,10.939849624059999,-4.99955632449E-12,                  1P      5
-1.3523249474200005,10.939849624059999,-4.99955632449E-12,             1P      6
-1.3523249474200005,-0.86466165413999896,-4.99955632449E-12,           1P      7
16.67867435158,-0.86466165413999896,-4.99955632449E-12;                1P      8
406,1,8Hcurve-23;                                                      3P      9
314,94.117647058823522,42.745098039215684,68.627450980392155,;         5P     10
126,1,1,0,0,1,0,2.5,2.5,3.5,3.5,1.0,1.0,-1.3523249474200005,           7P     11
-0.86466165413999985,9.9401787656050011,16.67867435158,                7P     12
-0.86466165413999985,9.9401787656050011,2.5,3.5,0.0,0.0,1.0,0,1,       7P     13
3;                                                                     7P     14
406,1,8Hcurve-19;                                                      9P     15
126,1,1,0,0,1,0,-0.5,-0.5,0.5,0.5,1.0,1.0,16.67867435158,             11P     16
-0.86466165413999985,9.9401787656050011,16.67867435158,               11P     17
10.939849624059999,9.9401787656050011,-0.5,0.5,0.0,0.0,1.0,0,1,       11P     18
9;                                                                    11P     19
406,1,8Hcurve-15;                                                     13P     20
126,1,1,0,0,1,0,0.5,0.5,1.5,1.5,1.0,1.0,16.67867435158,               15P     21
10.939849624059999,9.9401787656050011,-1.3523249474200005,            15P     22
10.939849624059999,9.9401787656050011,0.5,1.5,0.0,0.0,1.0,0,1,        15P     23
13;                                                                   15P     24
406,1,8Hcurve-11;                                                     17P     25
126,1,1,0,0,1,0,1.5,1.5,2.5,2.5,1.0,1.0,-1.3523249474200005,          19P     26
10.939849624059999,9.9401787656050011,-1.3523249474200005,            19P     27
-0.86466165413999985,9.9401787656050011,1.5,2.5,0.0,0.0,1.0,0,1,      19P     28
17;                                                                   19P     29
406,1,8Hcurve-21;                                                     21P     30
126,1,1,0,0,1,0,2.5,2.5,3.5,3.5,1.0,1.0,-1.3523249474200005,          23P     31
-0.86466165413999985,-4.99955632449E-12,16.67867435158,               23P     32
-0.86466165413999985,-4.99955632449E-12,2.5,3.5,0.0,0.0,1.0,0,1,      23P     33
21;                                                                   23P     34
406,1,7Hcurve-9;                                                      25P     35
126,1,1,0,0,1,0,1.5,1.5,2.5,2.5,1.0,1.0,-1.3523249474200005,          27P     36
10.939849624059999,-4.99955632449E-12,-1.3523249474200005,            27P     37
-0.86466165413999985,-4.99955632449E-12,1.5,2.5,0.0,0.0,1.0,0,1,      27P     38
25;                                                                   27P     39
406,1,8Hcurve-13;                                                     29P     40
126,1,1,0,0,1,0,0.5,0.5,1.5,1.5,1.0,1.0,16.67867435158,               31P     41
10.939849624059999,-4.99955632449E-12,-1.3523249474200005,            31P     42
10.939849624059999,-4.99955632449E-12,0.5,1.5,0.0,0.0,1.0,0,1,        31P     43
29;                                                                   31P     44
406,1,8Hcurve-17;                                                     33P     45
126,1,1,0,0,1,0,-0.5,-0.5,0.5,0.5,1.0,1.0,16.67867435158,             35P     46
-0.86466165413999985,-4.99955632449E-12,16.67867435158,               35P     47
10.939849624059999,-4.99955632449E-12,-0.5,0.5,0.0,0.0,1.0,0,1,       35P     48
33;                                                                   35P     49
406,1,8Hcurve-24;                                                     37P     50
126,1,1,0,0,1,0,0.0,0.0,1.0,1.0,1.0,1.0,-1.3523249474200005,          39P     51
-0.86466165413999985,-4.99955632449E-12,-1.3523249474200005,          39P     52
-0.86466165413999985,9.9401787656050011,0.0,1.0,0.0,0.0,1.0,0,1,      39P     53
37;                                                                   39P     54
406,1,8Hcurve-14;                                                     41P     55
126,1,1,0,0,1,0,0.0,0.0,1.0,1.0,1.0,1.0,-1.3523249474200005,          43P     56
10.939849624059999,-4.99955632449E-12,-1.3523249474200005,            43P     57
10.939849624059999,9.9401787656050011,0.0,1.0,0.0,0.0,1.0,0,1,        43P     58
41;                                                                   43P     59
406,1,8Hcurve-18;                                                     45P     60
126,1,1,0,0,1,0,0.0,0.0,1.0,1.0,1.0,1.0,16.67867435158,               47P     61
10.939849624059999,-4.99955632449E-12,16.67867435158,                 47P     62
10.939849624059999,9.9401787656050011,0.0,1.0,0.0,0.0,1.0,0,1,        47P     63
45;                                                                   47P     64
406,1,8Hcurve-22;                                                     49P     65
126,1,1,0,0,1,0,0.0,0.0,1.0,1.0,1.0,1.0,16.67867435158,               51P     66
-0.86466165413999985,-4.99955632449E-12,16.67867435158,               51P     67
-0.86466165413999985,9.9401787656050011,0.0,1.0,0.0,0.0,1.0,0,1,      51P     68
49;                                                                   51P     69
504,12,7,1,4,1,3,11,1,3,1,2,15,1,2,1,1,19,1,1,1,4,23,1,7,1,8,27,      53P     70
1,6,1,7,31,1,5,1,6,35,1,8,1,5,39,1,7,1,4,43,1,6,1,1,47,1,5,1,2,       53P     71
51,1,8,1,3;                                                           53P     72
406,1,9Hsurface-1;                                                    55P     73
128,1,1,1,1,0,0,1,0,0,0.0,0.0,1.0,1.0,0.0,0.0,1.0,1.0,1.0,1.0,        57P     74
1.0,1.0,-1.3523249474200005,-0.86466165413999985,                     57P     75
9.9401787656050011,16.67867435158,-0.86466165413999985,               57P     76
9.9401787656050011,-1.3523249474200005,10.939849624059999,            57P     77
9.9401787656050011,16.67867435158,10.939849624059999,                 57P     78
9.9401787656050011,0.0,1.0,0.0,1.0,0,1,55;                            57P     79
126,1,1,0,0,1,0,0.0,0.0,1.0,1.0,1.0,1.0,0.0,0.0,0.0,1.0,0.0,0.0,      59P     80
0.0,1.0,0.0,0.0,1.0;                                                  59P     81
126,1,1,0,0,1,0,0.0,0.0,1.0,1.0,1.0,1.0,1.0,0.0,0.0,1.0,1.0,0.0,      61P     82
0.0,1.0,0.0,0.0,1.0;                                                  61P     83
126,1,1,0,0,1,0,0.0,0.0,1.0,1.0,1.0,1.0,1.0,1.0,0.0,0.0,1.0,0.0,      63P     84
0.0,1.0,0.0,0.0,1.0;                                                  63P     85
126,1,1,0,0,1,0,0.0,0.0,1.0,1.0,1.0,1.0,0.0,1.0,0.0,0.0,0.0,0.0,      65P     86
0.0,1.0,0.0,0.0,1.0;                                                  65P     87
508,4,0,53,1,1,1,0,59,0,53,2,1,1,0,61,0,53,3,1,1,0,63,0,53,4,1,       67P     88
1,0,65;                                                               67P     89
406,1,7Htsurf-1;                                                      69P     90
510,57,1,1,67,0,1,69;                                                 71P     91
406,1,9Hsurface-2;                                                    73P     92
128,1,1,1,1,0,0,1,0,0,0.0,0.0,1.0,1.0,0.0,0.0,1.0,1.0,1.0,1.0,        75P     93
1.0,1.0,-1.3523249474200005,-0.86466165413999985,                     75P     94
-4.99955632449E-12,16.67867435158,-0.86466165413999985,               75P     95
-4.99955632449E-12,-1.3523249474200005,10.939849624059999,            75P     96
-4.99955632449E-12,16.67867435158,10.939849624059999,                 75P     97
-4.99955632449E-12,0.0,1.0,0.0,1.0,0,1,73;                            75P     98
126,1,1,0,0,1,0,0.0,0.0,1.0,1.0,1.0,1.0,1.0,0.0,0.0,1.0,1.0,0.0,      77P     99
0.0,1.0,0.0,0.0,1.0;                                                  77P    100
126,1,1,0,0,1,0,0.0,0.0,1.0,1.0,1.0,1.0,1.0,1.0,0.0,0.0,1.0,0.0,      79P    101
0.0,1.0,0.0,0.0,1.0;                                                  79P    102
126,1,1,0,0,1,0,0.0,0.0,1.0,1.0,1.0,1.0,0.0,1.0,0.0,0.0,0.0,0.0,      81P    103
0.0,1.0,0.0,0.0,1.0;                                                  81P    104
126,1,1,0,0,1,0,0.0,0.0,1.0,1.0,1.0,1.0,0.0,0.0,0.0,1.0,0.0,0.0,      83P    105
0.0,1.0,0.0,0.0,1.0;                                                  83P    106
508,4,0,53,8,1,1,0,77,0,53,7,1,1,0,79,0,53,6,1,1,0,81,0,53,5,1,       85P    107
1,0,83;                                                               85P    108
406,1,7Htsurf-2;                                                      87P    109
510,75,1,1,85,0,1,87;                                                 89P    110
406,1,9Hsurface-3;                                                    91P    111
128,1,1,1,1,0,0,1,0,0,1.5,1.5,2.5,2.5,0.0,0.0,1.0,1.0,1.0,1.0,        93P    112
1.0,1.0,-1.3523249474200005,10.939849624059999,                       93P    113
-4.99955632449E-12,-1.3523249474200005,-0.86466165413999985,          93P    114
-4.99955632449E-12,-1.3523249474200005,10.939849624059999,            93P    115
9.9401787656050011,-1.3523249474200005,-0.86466165413999985,          93P    116
9.9401787656050011,1.5,2.5,0.0,1.0,0,1,91;                            93P    117
406,1,7Hcurve-9;                                                      95P    118
126,1,1,0,0,1,0,1.5,1.5,2.5,2.5,1.0,1.0,1.5,0.0,0.0,2.5,0.0,0.0,      97P    119
1.5,2.5,0.0,0.0,1.0,0,1,95;                                           97P    120
406,1,8Hcurve-24;                                                     99P    121
126,1,1,0,0,1,0,0.0,0.0,1.0,1.0,1.0,1.0,2.5,0.0,0.0,2.5,1.0,0.0,     101P    122
0.0,1.0,0.0,0.0,1.0,0,1,99;                                          101P    123
406,1,8Hcurve-11;                                                    103P    124
126,1,1,0,0,1,0,1.5,1.5,2.5,2.5,1.0,1.0,2.5,1.0,0.0,1.5,1.0,0.0,     105P    125
1.5,2.5,0.0,0.0,1.0,0,1,103;                                         105P    126
126,1,1,0,0,1,0,0.0,0.0,1.0,1.0,1.0,1.0,1.5,1.0,0.0,1.5,0.0,0.0,     107P    127
0.0,1.0,0.0,0.0,1.0;                                                 107P    128
508,4,0,53,6,1,1,0,97,0,53,9,1,1,0,101,0,53,4,0,1,0,105,0,53,10,     109P    129
0,1,0,107;                                                           109P    130
406,1,7Htsurf-3;                                                     111P    131
510,93,1,1,109,0,1,111;                                              113P    132
406,1,9Hsurface-4;                                                   115P    133
128,1,1,1,1,0,0,1,0,0,0.5,0.5,1.5,1.5,0.0,0.0,1.0,1.0,1.0,1.0,       117P    134
1.0,1.0,16.67867435158,10.939849624059999,-4.99955632449E-12,        117P    135
-1.3523249474200005,10.939849624059999,-4.99955632449E-12,           117P    136
16.67867435158,10.939849624059999,9.9401787656050011,                117P    137
-1.3523249474200005,10.939849624059999,9.9401787656050011,0.5,       117P    138
1.5,0.0,1.0,0,1,115;                                                 117P    139
406,1,8Hcurve-13;                                                    119P    140
126,1,1,0,0,1,0,0.5,0.5,1.5,1.5,1.0,1.0,0.5,0.0,0.0,1.5,0.0,0.0,     121P    141
0.5,1.5,0.0,0.0,1.0,0,1,119;                                         121P    142
406,1,8Hcurve-14;                                                    123P    143
126,1,1,0,0,1,0,0.0,0.0,1.0,1.0,1.0,1.0,1.5,0.0,0.0,1.5,1.0,0.0,     125P    144
0.0,1.0,0.0,0.0,1.0,0,1,123;                                         125P    145
406,1,8Hcurve-15;                                                    127P    146
126,1,1,0,0,1,0,0.5,0.5,1.5,1.5,1.0,1.0,1.5,1.0,0.0,0.5,1.0,0.0,     129P    147
0.5,1.5,0.0,0.0,1.0,0,1,127;                                         129P    148
126,1,1,0,0,1,0,0.0,0.0,1.0,1.0,1.0,1.0,0.5,1.0,0.0,0.5,0.0,0.0,     131P    149
0.0,1.0,0.0,0.0,1.0;                                                 131P    150
508,4,0,53,7,1,1,0,121,0,53,10,1,1,0,125,0,53,3,0,1,0,129,0,53,      133P    151
11,0,1,0,131;                                                        133P    152
406,1,7Htsurf-4;                                                     135P    153
510,117,1,1,133,0,1,135;                                             137P    154
406,1,9Hsurface-5;                                                   139P    155
128,1,1,1,1,0,0,1,0,0,-0.5,-0.5,0.5,0.5,0.0,0.0,1.0,1.0,1.0,1.0,     141P    156
1.0,1.0,16.67867435158,-0.86466165413999985,-4.99955632449E-12,      141P    157
16.67867435158,10.939849624059999,-4.99955632449E-12,                141P    158
16.67867435158,-0.86466165413999985,9.9401787656050011,              141P    159
16.67867435158,10.939849624059999,9.9401787656050011,-0.5,0.5,       141P    160
0.0,1.0,0,1,139;                                                     141P    161
406,1,8Hcurve-17;                                                    143P    162
126,1,1,0,0,1,0,-0.5,-0.5,0.5,0.5,1.0,1.0,-0.5,0.0,0.0,0.5,0.0,      145P    163
0.0,-0.5,0.5,0.0,0.0,1.0,0,1,143;                                    145P    164
406,1,8Hcurve-18;                                                    147P    165
126,1,1,0,0,1,0,0.0,0.0,1.0,1.0,1.0,1.0,0.5,0.0,0.0,0.5,1.0,0.0,     149P    166
0.0,1.0,0.0,0.0,1.0,0,1,147;                                         149P    167
406,1,8Hcurve-19;                                                    151P    168
126,1,1,0,0,1,0,-0.5,-0.5,0.5,0.5,1.0,1.0,0.5,1.0,0.0,-0.5,1.0,      153P    169
0.0,-0.5,0.5,0.0,0.0,1.0,0,1,151;                                    153P    170
406,1,8Hcurve-22;                                                    155P    171
126,1,1,0,0,1,0,0.0,0.0,1.0,1.0,1.0,1.0,-0.5,1.0,0.0,-0.5,0.0,       157P    172
0.0,0.0,1.0,0.0,0.0,1.0,0,1,155;                                     157P    173
508,4,0,53,8,1,1,0,145,0,53,11,1,1,0,149,0,53,2,0,1,0,153,0,53,      159P    174
12,0,1,0,157;                                                        159P    175
406,1,7Htsurf-5;                                                     161P    176
510,141,1,1,159,0,1,161;                                             163P    177
406,1,9Hsurface-6;                                                   165P    178
128,1,1,1,1,0,0,1,0,0,2.5,2.5,3.5,3.5,0.0,0.0,1.0,1.0,1.0,1.0,       167P    179
1.0,1.0,-1.3523249474200005,-0.86466165413999985,                    167P    180
-4.99955632449E-12,16.67867435158,-0.86466165413999985,              167P    181
-4.99955632449E-12,-1.3523249474200005,-0.86466165413999985,         167P    182
9.9401787656050011,16.67867435158,-0.86466165413999985,              167P    183
9.9401787656050011,2.5,3.5,0.0,1.0,0,1,165;                          167P    184
406,1,8Hcurve-21;                                                    169P    185
126,1,1,0,0,1,0,2.5,2.5,3.5,3.5,1.0,1.0,2.5,0.0,0.0,3.5,0.0,0.0,     171P    186
2.5,3.5,0.0,0.0,1.0,0,1,169;                                         171P    187
126,1,1,0,0,1,0,0.0,0.0,1.0,1.0,1.0,1.0,3.5,0.0,0.0,3.5,1.0,0.0,     173P    188
0.0,1.0,0.0,0.0,1.0;                                                 173P    189
406,1,8Hcurve-23;                                                    175P    190
126,1,1,0,0,1,0,2.5,2.5,3.5,3.5,1.0,1.0,3.5,1.0,0.0,2.5,1.0,0.0,     177P    191
2.5,3.5,0.0,0.0,1.0,0,1,175;                                         177P    192
126,1,1,0,0,1,0,0.0,0.0,1.0,1.0,1.0,1.0,2.5,1.0,0.0,2.5,0.0,0.0,     179P    193
0.0,1.0,0.0,0.0,1.0;                                                 179P    194
508,4,0,53,5,1,1,0,171,0,53,12,1,1,0,173,0,53,1,0,1,0,177,0,53,      181P    195
9,0,1,0,179;                                                         181P    196
406,1,7Htsurf-6;                                                     183P    197
510,167,1,1,181,0,1,183;                                             185P    198
514,6,71,1,89,0,113,1,137,1,163,1,185,1;                             187P    199
406,1,7Hmodel-1;                                                     189P    200
186,187,1,0,0,1,189;                                                 191P    201
S      1G      3D    192P    201                                        T      1
